<mxfile host="app.diagrams.net" modified="2023-05-02T11:26:30.174Z" agent="Mozilla/5.0 (Windows NT 10.0; Win64; x64) AppleWebKit/537.36 (KHTML, like Gecko) Chrome/110.0.0.0 YaBrowser/23.3.3.719 Yowser/2.5 Safari/537.36" etag="Y2l1kQnHWkb-3eRTrpS8" version="21.1.5" type="device">
  <diagram name="Страница 1" id="L3e7J88go9KAaxQNL3zA">
    <mxGraphModel dx="1386" dy="767" grid="1" gridSize="10" guides="1" tooltips="1" connect="1" arrows="1" fold="1" page="1" pageScale="1" pageWidth="827" pageHeight="1169" math="0" shadow="0">
      <root>
        <mxCell id="0" />
        <mxCell id="1" parent="0" />
        <mxCell id="9PxjgnHIYYL5N0s-LQBY-18" value="" style="rounded=0;whiteSpace=wrap;html=1;" parent="1" vertex="1">
          <mxGeometry x="270" y="290" width="400" height="260" as="geometry" />
        </mxCell>
        <mxCell id="9PxjgnHIYYL5N0s-LQBY-16" value="" style="rounded=0;whiteSpace=wrap;html=1;" parent="1" vertex="1">
          <mxGeometry x="270" y="30" width="400" height="240" as="geometry" />
        </mxCell>
        <mxCell id="9PxjgnHIYYL5N0s-LQBY-59" style="edgeStyle=orthogonalEdgeStyle;rounded=0;orthogonalLoop=1;jettySize=auto;html=1;exitX=1;exitY=0.5;exitDx=0;exitDy=0;entryX=0;entryY=0.5;entryDx=0;entryDy=0;entryPerimeter=0;" parent="1" source="9PxjgnHIYYL5N0s-LQBY-1" target="9PxjgnHIYYL5N0s-LQBY-9" edge="1">
          <mxGeometry relative="1" as="geometry" />
        </mxCell>
        <mxCell id="9PxjgnHIYYL5N0s-LQBY-1" value="User" style="rounded=0;whiteSpace=wrap;html=1;labelPosition=center;verticalLabelPosition=top;align=center;verticalAlign=bottom;" parent="1" vertex="1">
          <mxGeometry x="300" y="50" width="170" height="180" as="geometry" />
        </mxCell>
        <mxCell id="9PxjgnHIYYL5N0s-LQBY-2" value="PlatformUser" style="rounded=0;whiteSpace=wrap;html=1;" parent="1" vertex="1">
          <mxGeometry x="315" y="60" width="140" height="30" as="geometry" />
        </mxCell>
        <mxCell id="9PxjgnHIYYL5N0s-LQBY-30" style="edgeStyle=orthogonalEdgeStyle;rounded=0;orthogonalLoop=1;jettySize=auto;html=1;exitX=0.5;exitY=1;exitDx=0;exitDy=0;entryX=-0.005;entryY=0.586;entryDx=0;entryDy=0;entryPerimeter=0;" parent="1" source="9PxjgnHIYYL5N0s-LQBY-5" target="9PxjgnHIYYL5N0s-LQBY-20" edge="1">
          <mxGeometry relative="1" as="geometry">
            <Array as="points">
              <mxPoint x="140" y="642" />
            </Array>
          </mxGeometry>
        </mxCell>
        <mxCell id="9PxjgnHIYYL5N0s-LQBY-33" style="edgeStyle=orthogonalEdgeStyle;rounded=0;orthogonalLoop=1;jettySize=auto;html=1;exitX=1;exitY=0.5;exitDx=0;exitDy=0;entryX=0;entryY=0.5;entryDx=0;entryDy=0;" parent="1" source="9PxjgnHIYYL5N0s-LQBY-5" target="9PxjgnHIYYL5N0s-LQBY-18" edge="1">
          <mxGeometry relative="1" as="geometry" />
        </mxCell>
        <mxCell id="9PxjgnHIYYL5N0s-LQBY-35" style="edgeStyle=orthogonalEdgeStyle;rounded=0;orthogonalLoop=1;jettySize=auto;html=1;exitX=0.5;exitY=0;exitDx=0;exitDy=0;entryX=-0.002;entryY=0.429;entryDx=0;entryDy=0;entryPerimeter=0;" parent="1" source="9PxjgnHIYYL5N0s-LQBY-5" target="9PxjgnHIYYL5N0s-LQBY-16" edge="1">
          <mxGeometry relative="1" as="geometry" />
        </mxCell>
        <mxCell id="9PxjgnHIYYL5N0s-LQBY-5" value="API GATEWAY" style="rounded=0;whiteSpace=wrap;html=1;" parent="1" vertex="1">
          <mxGeometry x="80" y="280" width="120" height="60" as="geometry" />
        </mxCell>
        <mxCell id="9PxjgnHIYYL5N0s-LQBY-6" value="Authentification" style="rounded=0;whiteSpace=wrap;html=1;" parent="1" vertex="1">
          <mxGeometry x="315" y="100" width="140" height="30" as="geometry" />
        </mxCell>
        <mxCell id="9PxjgnHIYYL5N0s-LQBY-7" value="Refresh Token" style="rounded=0;whiteSpace=wrap;html=1;" parent="1" vertex="1">
          <mxGeometry x="315" y="140" width="140" height="30" as="geometry" />
        </mxCell>
        <mxCell id="9PxjgnHIYYL5N0s-LQBY-8" value="UserRating" style="rounded=0;whiteSpace=wrap;html=1;" parent="1" vertex="1">
          <mxGeometry x="315" y="180" width="140" height="30" as="geometry" />
        </mxCell>
        <mxCell id="9PxjgnHIYYL5N0s-LQBY-60" style="edgeStyle=orthogonalEdgeStyle;rounded=0;orthogonalLoop=1;jettySize=auto;html=1;exitX=0;exitY=0;exitDx=0;exitDy=52.5;exitPerimeter=0;entryX=1.012;entryY=0.567;entryDx=0;entryDy=0;entryPerimeter=0;" parent="1" source="9PxjgnHIYYL5N0s-LQBY-9" target="9PxjgnHIYYL5N0s-LQBY-1" edge="1">
          <mxGeometry relative="1" as="geometry" />
        </mxCell>
        <mxCell id="9PxjgnHIYYL5N0s-LQBY-9" value="MongoDB" style="shape=cylinder3;whiteSpace=wrap;html=1;boundedLbl=1;backgroundOutline=1;size=15;" parent="1" vertex="1">
          <mxGeometry x="530" y="100" width="60" height="80" as="geometry" />
        </mxCell>
        <mxCell id="9PxjgnHIYYL5N0s-LQBY-61" style="edgeStyle=orthogonalEdgeStyle;rounded=0;orthogonalLoop=1;jettySize=auto;html=1;exitX=1;exitY=0.5;exitDx=0;exitDy=0;" parent="1" source="9PxjgnHIYYL5N0s-LQBY-10" target="9PxjgnHIYYL5N0s-LQBY-19" edge="1">
          <mxGeometry relative="1" as="geometry" />
        </mxCell>
        <mxCell id="9PxjgnHIYYL5N0s-LQBY-10" value="Task" style="rounded=0;whiteSpace=wrap;html=1;labelPosition=center;verticalLabelPosition=top;align=center;verticalAlign=bottom;" parent="1" vertex="1">
          <mxGeometry x="300" y="320" width="170" height="210" as="geometry" />
        </mxCell>
        <mxCell id="9PxjgnHIYYL5N0s-LQBY-11" value="TaskInfo" style="rounded=0;whiteSpace=wrap;html=1;" parent="1" vertex="1">
          <mxGeometry x="315" y="330" width="140" height="30" as="geometry" />
        </mxCell>
        <mxCell id="9PxjgnHIYYL5N0s-LQBY-12" value="TaskResponses" style="rounded=0;whiteSpace=wrap;html=1;" parent="1" vertex="1">
          <mxGeometry x="315" y="370" width="140" height="30" as="geometry" />
        </mxCell>
        <mxCell id="9PxjgnHIYYL5N0s-LQBY-13" value="TaskCategory" style="rounded=0;whiteSpace=wrap;html=1;" parent="1" vertex="1">
          <mxGeometry x="315" y="410" width="140" height="30" as="geometry" />
        </mxCell>
        <mxCell id="9PxjgnHIYYL5N0s-LQBY-14" value="TaskTags" style="rounded=0;whiteSpace=wrap;html=1;" parent="1" vertex="1">
          <mxGeometry x="315" y="450" width="140" height="30" as="geometry" />
        </mxCell>
        <mxCell id="9PxjgnHIYYL5N0s-LQBY-62" style="edgeStyle=orthogonalEdgeStyle;rounded=0;orthogonalLoop=1;jettySize=auto;html=1;exitX=0;exitY=0;exitDx=0;exitDy=52.5;exitPerimeter=0;entryX=1;entryY=0.572;entryDx=0;entryDy=0;entryPerimeter=0;" parent="1" source="9PxjgnHIYYL5N0s-LQBY-19" target="9PxjgnHIYYL5N0s-LQBY-10" edge="1">
          <mxGeometry relative="1" as="geometry" />
        </mxCell>
        <mxCell id="9PxjgnHIYYL5N0s-LQBY-19" value="PostgreSQL" style="shape=cylinder3;whiteSpace=wrap;html=1;boundedLbl=1;backgroundOutline=1;size=15;" parent="1" vertex="1">
          <mxGeometry x="525" y="370" width="70" height="80" as="geometry" />
        </mxCell>
        <mxCell id="9PxjgnHIYYL5N0s-LQBY-20" value="" style="rounded=0;whiteSpace=wrap;html=1;" parent="1" vertex="1">
          <mxGeometry x="270" y="560" width="400" height="140" as="geometry" />
        </mxCell>
        <mxCell id="9PxjgnHIYYL5N0s-LQBY-63" style="edgeStyle=orthogonalEdgeStyle;rounded=0;orthogonalLoop=1;jettySize=auto;html=1;exitX=1;exitY=0.5;exitDx=0;exitDy=0;entryX=0;entryY=0.5;entryDx=0;entryDy=0;" parent="1" source="9PxjgnHIYYL5N0s-LQBY-21" target="9PxjgnHIYYL5N0s-LQBY-24" edge="1">
          <mxGeometry relative="1" as="geometry" />
        </mxCell>
        <mxCell id="9PxjgnHIYYL5N0s-LQBY-21" value="Notify" style="rounded=0;whiteSpace=wrap;html=1;labelPosition=center;verticalLabelPosition=top;align=center;verticalAlign=bottom;" parent="1" vertex="1">
          <mxGeometry x="300" y="580" width="170" height="100" as="geometry" />
        </mxCell>
        <mxCell id="9PxjgnHIYYL5N0s-LQBY-22" value="Subscriber" style="rounded=0;whiteSpace=wrap;html=1;" parent="1" vertex="1">
          <mxGeometry x="315" y="590" width="135" height="30" as="geometry" />
        </mxCell>
        <mxCell id="9PxjgnHIYYL5N0s-LQBY-23" value="Mail" style="rounded=0;whiteSpace=wrap;html=1;" parent="1" vertex="1">
          <mxGeometry x="315" y="630" width="135" height="30" as="geometry" />
        </mxCell>
        <mxCell id="9PxjgnHIYYL5N0s-LQBY-64" style="edgeStyle=orthogonalEdgeStyle;rounded=0;orthogonalLoop=1;jettySize=auto;html=1;exitX=0;exitY=0.75;exitDx=0;exitDy=0;entryX=1;entryY=0.63;entryDx=0;entryDy=0;entryPerimeter=0;" parent="1" source="9PxjgnHIYYL5N0s-LQBY-24" target="9PxjgnHIYYL5N0s-LQBY-21" edge="1">
          <mxGeometry relative="1" as="geometry" />
        </mxCell>
        <mxCell id="9PxjgnHIYYL5N0s-LQBY-24" value="RabbitMQ" style="shape=parallelogram;html=1;strokeWidth=2;perimeter=parallelogramPerimeter;whiteSpace=wrap;rounded=1;arcSize=12;size=0.23;" parent="1" vertex="1">
          <mxGeometry x="530" y="600" width="100" height="60" as="geometry" />
        </mxCell>
        <mxCell id="9PxjgnHIYYL5N0s-LQBY-43" value="" style="curved=1;endArrow=classic;html=1;rounded=0;exitX=1;exitY=0.5;exitDx=0;exitDy=0;entryX=1;entryY=0.5;entryDx=0;entryDy=0;" parent="1" source="9PxjgnHIYYL5N0s-LQBY-16" target="9PxjgnHIYYL5N0s-LQBY-18" edge="1">
          <mxGeometry width="50" height="50" relative="1" as="geometry">
            <mxPoint x="690" y="290" as="sourcePoint" />
            <mxPoint x="740" y="240" as="targetPoint" />
            <Array as="points">
              <mxPoint x="680" y="230" />
              <mxPoint x="690" y="270" />
              <mxPoint x="690" y="300" />
            </Array>
          </mxGeometry>
        </mxCell>
        <mxCell id="9PxjgnHIYYL5N0s-LQBY-55" value="" style="curved=1;endArrow=classic;html=1;rounded=0;exitX=1;exitY=0.5;exitDx=0;exitDy=0;" parent="1" source="9PxjgnHIYYL5N0s-LQBY-18" edge="1">
          <mxGeometry width="50" height="50" relative="1" as="geometry">
            <mxPoint x="670" y="460" as="sourcePoint" />
            <mxPoint x="670" y="640" as="targetPoint" />
            <Array as="points">
              <mxPoint x="690" y="530" />
            </Array>
          </mxGeometry>
        </mxCell>
        <mxCell id="Xz0begN0H29AaCgNVHBN-4" value="" style="endArrow=classic;html=1;rounded=0;exitX=0.518;exitY=0.008;exitDx=0;exitDy=0;exitPerimeter=0;" edge="1" parent="1" source="9PxjgnHIYYL5N0s-LQBY-16">
          <mxGeometry width="50" height="50" relative="1" as="geometry">
            <mxPoint x="680" y="420" as="sourcePoint" />
            <mxPoint x="670" y="640" as="targetPoint" />
            <Array as="points">
              <mxPoint x="710" y="20" />
              <mxPoint x="750" y="190" />
              <mxPoint x="750" y="370" />
            </Array>
          </mxGeometry>
        </mxCell>
        <mxCell id="Xz0begN0H29AaCgNVHBN-5" value="TaskComments" style="rounded=0;whiteSpace=wrap;html=1;" vertex="1" parent="1">
          <mxGeometry x="315" y="490" width="135" height="30" as="geometry" />
        </mxCell>
      </root>
    </mxGraphModel>
  </diagram>
</mxfile>
